<svg xmlns="http://www.w3.org/2000/svg" width="48" height="48" fill="currentColor" viewBox="0 0 24 24">
  <path d="M12 4a1 1 0 0 1 1 1V5a1 1 0 1 1-2 0V5a1 1 0 0 1 1-1zm0 14a1 1 0 0 1 1 1v1a1 1 0 1 1-2 0v-1a1 1 0 0 1 1-1zm10-5h-1a1 1 0 1 1 0-2h1a1 1 0 1 1 0 2zM5 12a1 1 0 0 1 1 1H5a1 1 0 1 1 0-2h1a1 1 0 0 1 0 2zm13.071-7.071a1 1 0 0 1 1.414 0l.707.707a1 1 0 0 1-1.414 1.414l-.707-.707a1 1 0 0 1 0-1.414zm-12.142 0a1 1 0 0 1 1.414 0l.707.707a1 1 0 0 1-1.414 1.414l-.707-.707a1 1 0 0 1 0-1.414zm12.142 12.142a1 1 0 0 1 1.414 0l.707.707a1 1 0 0 1-1.414 1.414l-.707-.707a1 1 0 0 1 0-1.414zm-12.142 0a1 1 0 0 1 1.414 0l.707.707a1 1 0 0 1-1.414 1.414l-.707-.707a1 1 0 0 1 0-1.414zM12 8a4 4 0 1 1 0 8 4 4 0 0 1 0-8z"/>
</svg>
